<?xml version="1.0" standalone="no"?>
<!DOCTYPE svg PUBLIC "-//W3C//DTD SVG 20010904//EN"
 "http://www.w3.org/TR/2001/REC-SVG-20010904/DTD/svg10.dtd">
<svg version="1.0" xmlns="http://www.w3.org/2000/svg"
 width="700.000000pt" height="700.000000pt" viewBox="0 0 700.000000 700.000000"
 preserveAspectRatio="xMidYMid meet">
<metadata>
Created by potrace 1.14, written by Peter Selinger 2001-2017
</metadata>
<g transform="translate(0.000000,700.000000) scale(0.100000,-0.100000)"
fill="#000000" stroke="none">
<path d="M2657 6043 c-25 -54 -64 -138 -87 -188 -23 -49 -55 -117 -70 -150
-16 -33 -60 -127 -98 -210 -38 -82 -88 -188 -110 -235 -48 -101 -94 -201 -172
-370 -32 -69 -78 -168 -103 -220 -25 -52 -107 -228 -182 -390 -76 -162 -155
-333 -177 -380 -22 -47 -66 -141 -98 -210 -32 -69 -73 -159 -92 -200 -163
-349 -245 -524 -297 -634 -34 -70 -61 -130 -61 -131 0 -3 -44 -98 -151 -324
-33 -68 -59 -125 -59 -127 0 -1 -22 -49 -49 -106 -27 -57 -65 -138 -85 -180
-62 -134 -102 -219 -155 -332 -28 -59 -51 -109 -51 -111 0 -1 -25 -56 -56
-121 -53 -111 -148 -316 -215 -462 -16 -34 -29 -66 -29 -70 0 -8 1336 -9 1344
-1 5 5 199 404 341 704 23 50 71 149 105 220 34 72 86 180 115 240 29 61 80
166 113 235 33 69 88 184 122 255 34 72 92 191 127 265 36 74 82 171 103 215
21 44 70 148 110 230 40 83 118 247 175 365 121 254 214 447 297 620 34 69 91
189 128 267 l68 141 -48 104 c-26 56 -63 137 -83 178 -71 150 -137 292 -137
295 0 2 -24 54 -54 117 -29 62 -68 145 -86 183 -43 93 -92 197 -154 330 -29
61 -70 149 -91 197 -22 48 -43 88 -46 88 -3 0 -26 -44 -52 -97z"/>
<path d="M3574 4044 c-31 -65 -96 -204 -144 -309 -48 -104 -108 -233 -133
-286 -25 -52 -75 -158 -110 -235 -36 -76 -78 -166 -94 -199 l-29 -61 35 -75
c20 -42 49 -104 65 -140 17 -35 60 -129 98 -207 37 -79 68 -145 68 -147 0 -2
24 -54 54 -116 53 -112 83 -176 146 -314 18 -38 50 -108 72 -155 22 -47 69
-146 103 -220 34 -74 86 -184 114 -243 28 -60 51 -110 51 -112 0 -1 26 -58 59
-126 32 -68 66 -143 77 -166 10 -24 23 -44 28 -44 26 -3 646 -12 1636 -24 245
-3 586 -8 758 -10 171 -2 312 -3 312 -1 0 2 -26 60 -59 127 -32 68 -68 145
-79 170 -12 25 -45 97 -75 160 -29 63 -109 234 -178 381 l-124 268 -775 0
-775 0 -34 73 c-19 39 -67 141 -107 226 -41 85 -74 155 -74 157 0 1 -38 82
-85 179 -47 97 -85 178 -85 180 0 1 -29 63 -64 136 -65 136 -286 604 -359 759
-104 223 -229 485 -233 489 -2 2 -29 -50 -60 -115z"/>
</g>
</svg>
